# xmcd
#
# Track frame offsets:
#	150
#	11359
#	25732
#	39092
#	51016
#	63006
#	76876
#	90110
#	104217
#	115441
#	126271
#	136793
#	147125
#	159803
#	170374
#	182790
#	193836
#	206691
#
# Disc length: 2923 seconds
#
# Revision: 0
# Processed by: cddbd v1.5.2PL0 Copyright (c) Steve Scherf et al.
# Submitted via: EasyCDDAExtractor 16.0.8.2
#
DISCID=e10b6912
DTITLE=Συλλογικός δίσκος - Όταν τα σλόου τα έλεγαν μπλουζ 1
DYEAR=2011
DGENRE=Ξένη σλόου
TTITLE0=Paul Anka - Crazy love
TTITLE1=Nat King Cole - Unforgettable
TTITLE2=Bobby Helms - My special angel
TTITLE3=Connie Francis - Where the boys are?
TTITLE4=The Platters - Smoke gets in your eyes
TTITLE5=Johnny Mathis - It's not for me to say
TTITLE6=Ben E. King - Stand by me
TTITLE7=Dalida - Histoire d'un amur
TTITLE8=The Five Keys - Wisdom of a fool
TTITLE9=Dean Martin - Innamorata
TTITLE10=Ricky Nelson - A teenager's romance
TTITLE11=Roy Orbison - Pretty one
TTITLE12=The Chantels - Maybe
TTITLE13=Sam Cooke - Tenderness
TTITLE14=The Platters - Harbor lights
TTITLE15=Ruby Murray - Softly, softly
TTITLE16=Patti Page - Allegheny moon
TTITLE17=Elvis Presley - Don't
EXTD=
EXTT0=
EXTT1=
EXTT2=
EXTT3=
EXTT4=
EXTT5=
EXTT6=
EXTT7=
EXTT8=
EXTT9=
EXTT10=
EXTT11=
EXTT12=
EXTT13=
EXTT14=
EXTT15=
EXTT16=
EXTT17=
PLAYORDER=
